# xmcd
#
# Track frame offsets:
#	150
#	1627
#	21165
#	22270
#	36080
#	37670
#	52722
#	65690
#	66167
#	80530
#	88177
#	89085
#	105057
#	119435
#	135607
#	149297
#	150395
#	166287
#	193320
#
# Disc length: 2966 seconds
#
# Revision: 4
# Processed by: cddbd v1.4PL0 Copyright (c) Steve Scherf et al.
# Submitted via: audiograbber 1.81.03
#
DISCID=f10b9413
DTITLE=Morphine - Bootleg Detroit
DYEAR=1997
DGENRE=Alternative
TTITLE0=Intro
TTITLE1=Come Along
TTITLE2=Dana Intro
TTITLE3=Mary
TTITLE4=Banter #1
TTITLE5=Candy
TTITLE6=Sheila
TTITLE7=Billy Intro
TTITLE8=Claire
TTITLE9=My Brain
TTITLE10=Banter #2
TTITLE11=Head With Wings
TTITLE12=Cure For Pain
TTITLE13=You Speak My language
TTITLE14=Thursday
TTITLE15=BANTER #3
TTITLE16=You Look Like Rain
TTITLE17=Buena
TTITLE18=[data]
EXTD=
EXTT0=
EXTT1=
EXTT2=
EXTT3=
EXTT4=
EXTT5=
EXTT6=
EXTT7=
EXTT8=
EXTT9=
EXTT10=
EXTT11=
EXTT12=
EXTT13=
EXTT14=
EXTT15=
EXTT16=
EXTT17=
EXTT18=
PLAYORDER=
